<svg xmlns="http://www.w3.org/2000/svg" width="8" height="12" viewBox="0 0 8 12" fill="none"><path d="M7.04034 4.86474L6.84139 6.53526C6.82361 6.69598 6.6873 6.8173 6.5256 6.81632H4.78876V11.7742C4.78964 11.8974 4.69092 11.9983 4.56771 12H2.79771C2.73824 11.9992 2.68154 11.9747 2.64009 11.9321C2.59863 11.8895 2.57581 11.8321 2.57666 11.7726L2.58613 6.81632H1.27087C1.09646 6.81632 0.955078 6.67493 0.955078 6.50053V4.83C0.955078 4.65559 1.09646 4.51421 1.27087 4.51421H2.57824V2.89421C2.57824 1.02 3.69297 0 5.3256 0H6.66297C6.83738 0 6.97876 0.141384 6.97876 0.315789V1.72263C6.97876 1.89704 6.83738 2.03842 6.66297 2.03842H5.8435C4.95613 2.05263 4.78876 2.47737 4.78876 3.11211V4.50947H6.73245C6.82213 4.51101 6.90693 4.55061 6.96567 4.6184C7.02442 4.68618 7.05157 4.77575 7.04034 4.86474Z" fill="white"></path></svg>