<svg xmlns="http://www.w3.org/2000/svg" width="270" height="160" viewBox="0 0 270 160" fill="none"><rect x="0.5" y="0.5" width="269" height="159" stroke="white"></rect><path fill-rule="evenodd" clip-rule="evenodd" d="M40 92V68H63.4184V72.3636H44.7793V77.6671H61.686V82.0308H44.7793V87.6364H63.4184V92H40ZM74.2182 92L64.5999 68H69.7974L77.713 87.8042H78.1014L86.017 68H91.2145L81.5962 92H74.2182ZM93.2943 68V92H116.713V87.6364H98.0735V82.0308H114.98V77.6671H98.0735V72.3636H116.713V68H93.2943ZM119.985 92V68H124.824L139.939 85.2531V68H144.718V92H139.879L124.764 74.7133V92H119.985ZM148.146 68V80.151H152.985V72.3636H158.302V92H163.081V72.3636H169.593V80.151H174.432V68H148.146ZM177.859 92V68H201.278V72.3636H182.638V77.6671H199.545V82.0308H182.638V87.6364H201.278V92H177.859ZM210.763 80.0168L202.758 92H208.613L215.005 82.1986H217.753L224.145 92H230L221.995 80.0168L230 68H224.175L217.753 77.835H215.005L208.583 68H202.758L210.763 80.0168Z" fill="white"></path></svg>