<svg xmlns="http://www.w3.org/2000/svg" width="270" height="160" viewBox="0 0 270 160" fill="none"><rect x="0.5" y="0.5" width="269" height="159" stroke="white"></rect><path fill-rule="evenodd" clip-rule="evenodd" d="M181.579 88.3941C181.068 88.6739 180.486 88.8138 179.833 88.8138C178.981 88.8138 178.555 88.4362 178.555 87.6807C178.555 87.5409 178.569 87.3871 178.597 87.2192L180.983 74.0012H173.741L171.185 88.1843C171.071 88.8557 171.014 89.639 171.014 90.5343C171.014 91.4015 171.27 92.2267 171.781 93.01C172.548 94.185 174.224 94.7725 176.808 94.7725C178.512 94.7725 180.031 94.2269 181.366 93.1358L181.579 88.3941ZM175.786 63.2589C174.99 64.0701 174.593 65.371 174.593 67.1613C174.593 69.1755 175.772 70.1827 178.129 70.1827C179.861 70.1827 181.125 69.777 181.92 68.9657C182.744 68.1545 183.156 66.8676 183.156 65.1051C183.156 63.035 181.963 62 179.577 62C177.873 62 176.609 62.4197 175.786 63.2589ZM115.574 87.7228C115.574 88.4502 115.944 88.8138 116.682 88.8138C117.449 88.8138 118.088 88.6739 118.599 88.3941L118.386 93.1358C117.023 94.2269 115.489 94.7725 113.785 94.7725C111.201 94.7725 109.525 94.185 108.758 93.01C108.275 92.2547 108.034 91.4294 108.034 90.5343C108.034 89.639 108.091 88.8557 108.205 88.1843L112.848 62.3356H120.09L115.617 87.2192C115.589 87.3871 115.574 87.5549 115.574 87.7228ZM40 88.7299C40 92.7583 42.9536 94.7725 48.8609 94.7725C55.3361 94.7725 59.0424 92.1568 59.9795 86.9254L52.9079 86.8415C52.8227 87.401 52.5387 87.8906 52.0559 88.3102C51.5731 88.7299 50.9909 88.9396 50.3093 88.9396C48.4633 88.9396 47.5403 88.1703 47.5403 86.6318C47.5403 86.3521 47.5687 86.0443 47.6255 85.7086L47.7959 84.7434H60.7889L61.3002 81.7641C61.4137 81.0368 61.4706 80.3654 61.4706 79.7499C61.4706 75.4978 58.6163 73.3717 52.9079 73.3717C49.5567 73.3717 46.8587 74.099 44.8138 75.5537C42.7974 76.9804 41.5478 79.0366 41.065 81.7222L40.1704 86.9254C40.0568 87.5689 40 88.1703 40 88.7299ZM54.1433 80.883C54.1433 81.2745 54.0865 81.7082 53.9729 82.1838H48.2219C48.4775 81.1207 48.9319 80.3234 49.5851 79.7919C50.2667 79.2603 51.0051 78.9946 51.8003 78.9946C52.6239 78.9946 53.2203 79.2044 53.5895 79.6241C53.9587 80.0438 54.1433 80.4633 54.1433 80.883ZM83.9733 88.7299C83.9733 92.7583 86.9269 94.7725 92.8342 94.7725C99.3094 94.7725 103.016 92.1568 103.953 86.9254L96.8812 86.8415C96.796 87.3171 96.4978 87.7508 95.9866 88.1424C95.5037 88.5341 94.9499 88.7299 94.3251 88.7299C92.4507 88.7299 91.5135 87.9885 91.5135 86.5059C91.5135 86.254 91.5419 85.9883 91.5987 85.7086L92.1525 82.6453C92.3513 81.5544 92.7773 80.7431 93.4305 80.2116C94.0838 79.68 94.8647 79.4143 95.7735 79.4143C97.3072 79.4143 98.0739 80.1696 98.0739 81.6802C98.0739 82.5194 97.7189 83.2468 97.0089 83.8622H104.251L104.592 83.4426C104.819 83.1908 105.032 82.7152 105.231 82.0159C105.458 81.2885 105.572 80.4773 105.572 79.5821C105.572 75.4418 102.547 73.3717 96.4978 73.3717C93.3738 73.3997 90.7893 74.127 88.7445 75.5537C86.728 76.9804 85.4927 79.0366 85.0382 81.7222L84.1436 86.9254C84.03 87.5689 83.9733 88.1703 83.9733 88.7299ZM142.896 88.8138C142.157 88.8138 141.788 88.4502 141.788 87.7228C141.788 87.5549 141.802 87.3871 141.831 87.2192L144.216 74.0012H136.974L134.546 87.3871C133.779 88.2542 132.757 88.6879 131.479 88.6879C129.945 88.6879 129.178 88.0165 129.178 86.6737C129.178 86.1701 129.221 85.6667 129.306 85.1631L131.308 74.0012H124.066L121.681 87.2192C121.51 88.0864 121.425 89.0375 121.425 90.0727C121.425 91.1077 121.709 92.0309 122.277 92.8422C123.129 94.129 124.989 94.7725 127.858 94.7725C130.754 94.7725 133.055 93.5555 134.759 91.1216C135.043 93.5555 136.79 94.7725 139.999 94.7725C141.703 94.7725 143.236 94.2269 144.6 93.1358L144.813 88.3941C144.301 88.6739 143.662 88.8138 142.896 88.8138ZM168.764 78.3652C168.764 79.2884 168.48 80.1416 167.912 80.9249H160.925C161.153 80.7571 161.266 80.4773 161.266 80.0857C161.266 79.694 161.039 79.3863 160.585 79.1624C160.13 78.9107 159.548 78.7849 158.838 78.7849C156.708 78.7849 155.643 79.4283 155.643 80.7152C155.643 81.2186 156.041 81.5823 156.836 81.8061C157.631 82.0298 158.597 82.2118 159.733 82.3516C160.869 82.4915 162.005 82.7012 163.141 82.9811C164.277 83.2328 165.242 83.7504 166.038 84.5336C166.833 85.3169 167.23 86.366 167.23 87.6807C167.23 90.0027 166.279 91.7651 164.376 92.968C162.502 94.171 159.761 94.7725 156.154 94.7725C152.547 94.7725 150.02 94.199 148.571 93.0519C147.435 92.1568 146.867 90.9259 146.867 89.3593C146.867 88.9117 146.91 88.4502 146.995 87.9746L154.109 87.8906C154.053 88.2822 154.28 88.632 154.791 88.9396C155.331 89.2195 156.112 89.3593 157.134 89.3593C158.156 89.3593 158.895 89.2614 159.349 89.0655C159.804 88.8417 160.031 88.4362 160.031 87.8487C160.031 87.457 159.633 87.1913 158.838 87.0514C158.043 86.8835 157.063 86.7436 155.899 86.6318C154.763 86.5199 153.612 86.3381 152.448 86.0862C151.312 85.8345 150.346 85.3029 149.551 84.4917C148.756 83.6804 148.358 82.6173 148.358 81.3025C148.358 78.7569 149.352 76.7986 151.34 75.4279C153.357 74.0571 156.254 73.3717 160.031 73.3717C165.853 73.3717 168.764 75.0363 168.764 78.3652ZM205.797 74.0012C206.194 75.1761 206.393 76.7427 206.393 78.701C206.393 80.6311 206.152 82.4915 205.668 84.2819C205.186 86.0722 204.448 87.7788 203.454 89.4013C202.488 90.9958 201.124 92.2966 199.365 93.3037C197.631 94.2829 195.629 94.7725 193.358 94.7725C189.808 94.7725 187.351 94.0591 185.988 92.6324C185.079 91.6812 184.624 90.2265 184.624 88.2682C184.624 87.3451 184.738 86.296 184.965 85.1211L186.968 74.0012H194.21L192.208 85.1631C192.121 85.5826 192.079 85.9604 192.079 86.296C192.079 87.8906 192.918 88.6879 194.593 88.6879C197.547 88.6879 199.023 85.6387 199.023 79.5402C199.023 78.1135 198.91 76.5329 198.682 74.7984L198.555 74.0012H205.797ZM208.53 88.7299C208.53 92.7583 211.482 94.7725 217.39 94.7725C223.866 94.7725 227.572 92.1568 228.509 86.9254L221.437 86.8415C221.352 87.401 221.069 87.8906 220.585 88.3102C220.102 88.7299 219.521 88.9396 218.838 88.9396C216.992 88.9396 216.07 88.1703 216.07 86.6318C216.07 86.3521 216.098 86.0443 216.155 85.7086L216.326 84.7434H229.319L229.829 81.7641C229.943 81.0368 230 80.3654 230 79.7499C230 75.4978 227.146 73.3717 221.437 73.3717C218.086 73.3717 215.388 74.099 213.343 75.5537C211.327 76.9804 210.078 79.0366 209.594 81.7222L208.7 86.9254C208.586 87.5689 208.53 88.1703 208.53 88.7299ZM222.673 80.883C222.673 81.2745 222.616 81.7082 222.502 82.1838H216.751C217.007 81.1207 217.461 80.3234 218.115 79.7919C218.796 79.2603 219.534 78.9946 220.329 78.9946C221.153 78.9946 221.75 79.2044 222.119 79.6241C222.488 80.0438 222.673 80.4633 222.673 80.883ZM78.236 83.0272L90.9599 66.8938H81.7102L73.5886 77.2938L69.8435 66.8938H60.5938L66.8204 83.0272L54.8636 98.8938H64.1133L71.5581 88.6715L75.9799 98.8938H85.2295L78.236 83.0272Z" fill="white"></path></svg>