<svg xmlns="http://www.w3.org/2000/svg" width="270" height="160" viewBox="0 0 270 160" fill="none"><rect x="0.5" y="0.5" width="269" height="159" stroke="white"></rect><path fill-rule="evenodd" clip-rule="evenodd" d="M86.44 93.2858V65.8569L77.4555 71.1636V87.9792L63.22 96.3875L48.9836 87.9792V71.1636L40 65.8569V93.2858L63.22 107L86.44 93.2858Z" fill="white"></path><path fill-rule="evenodd" clip-rule="evenodd" d="M86.44 66.0943L77.4555 60.7144L63.22 69.2393L48.9836 60.7144L40 66.0943L63.22 80.0001L86.44 66.0943Z" fill="white"></path><path fill-rule="evenodd" clip-rule="evenodd" d="M63.22 63.2857L72.25 58.1433L63.22 53L54.19 58.1433L63.22 63.2857Z" fill="white"></path><path d="M105.55 71.5C107.067 71.5 108.383 71.75 109.5 72.25C110.633 72.75 111.5 73.4667 112.1 74.4C112.7 75.3333 113 76.4417 113 77.725C113 78.9917 112.7 80.1 112.1 81.05C111.5 81.9833 110.633 82.7 109.5 83.2C108.383 83.7 107.067 83.95 105.55 83.95H101.6V89H98.35V71.5H105.55ZM105.4 81.2C106.817 81.2 107.892 80.9 108.625 80.3C109.358 79.7 109.725 78.8417 109.725 77.725C109.725 76.6083 109.358 75.75 108.625 75.15C107.892 74.55 106.817 74.25 105.4 74.25H101.6V81.2H105.4ZM127.696 89L124.121 83.875C123.971 83.8917 123.746 83.9 123.446 83.9H119.496V89H116.246V71.5H123.446C124.962 71.5 126.279 71.75 127.396 72.25C128.529 72.75 129.396 73.4667 129.996 74.4C130.596 75.3333 130.896 76.4417 130.896 77.725C130.896 79.0417 130.571 80.175 129.921 81.125C129.287 82.075 128.371 82.7833 127.171 83.25L131.196 89H127.696ZM127.621 77.725C127.621 76.6083 127.254 75.75 126.521 75.15C125.787 74.55 124.712 74.25 123.296 74.25H119.496V81.225H123.296C124.712 81.225 125.787 80.925 126.521 80.325C127.254 79.7083 127.621 78.8417 127.621 77.725ZM142.707 89.25C140.923 89.25 139.315 88.8667 137.882 88.1C136.448 87.3167 135.323 86.2417 134.507 84.875C133.69 83.4917 133.282 81.95 133.282 80.25C133.282 78.55 133.69 77.0167 134.507 75.65C135.323 74.2667 136.448 73.1917 137.882 72.425C139.315 71.6417 140.923 71.25 142.707 71.25C144.49 71.25 146.098 71.6417 147.532 72.425C148.965 73.1917 150.09 74.2583 150.907 75.625C151.723 76.9917 152.132 78.5333 152.132 80.25C152.132 81.9667 151.723 83.5083 150.907 84.875C150.09 86.2417 148.965 87.3167 147.532 88.1C146.098 88.8667 144.49 89.25 142.707 89.25ZM142.707 86.4C143.873 86.4 144.923 86.1417 145.857 85.625C146.79 85.0917 147.523 84.3583 148.057 83.425C148.59 82.475 148.857 81.4167 148.857 80.25C148.857 79.0833 148.59 78.0333 148.057 77.1C147.523 76.15 146.79 75.4167 145.857 74.9C144.923 74.3667 143.873 74.1 142.707 74.1C141.54 74.1 140.49 74.3667 139.557 74.9C138.623 75.4167 137.89 76.15 137.357 77.1C136.823 78.0333 136.557 79.0833 136.557 80.25C136.557 81.4167 136.823 82.475 137.357 83.425C137.89 84.3583 138.623 85.0917 139.557 85.625C140.49 86.1417 141.54 86.4 142.707 86.4ZM171.652 89L171.627 77.4L165.877 87H164.427L158.677 77.55V89H155.577V71.5H158.252L165.202 83.1L172.027 71.5H174.702L174.727 89H171.652ZM187.629 89.25C185.845 89.25 184.237 88.8667 182.804 88.1C181.37 87.3167 180.245 86.2417 179.429 84.875C178.612 83.4917 178.204 81.95 178.204 80.25C178.204 78.55 178.612 77.0167 179.429 75.65C180.245 74.2667 181.37 73.1917 182.804 72.425C184.237 71.6417 185.845 71.25 187.629 71.25C189.412 71.25 191.02 71.6417 192.454 72.425C193.887 73.1917 195.012 74.2583 195.829 75.625C196.645 76.9917 197.054 78.5333 197.054 80.25C197.054 81.9667 196.645 83.5083 195.829 84.875C195.012 86.2417 193.887 87.3167 192.454 88.1C191.02 88.8667 189.412 89.25 187.629 89.25ZM187.629 86.4C188.795 86.4 189.845 86.1417 190.779 85.625C191.712 85.0917 192.445 84.3583 192.979 83.425C193.512 82.475 193.779 81.4167 193.779 80.25C193.779 79.0833 193.512 78.0333 192.979 77.1C192.445 76.15 191.712 75.4167 190.779 74.9C189.845 74.3667 188.795 74.1 187.629 74.1C186.462 74.1 185.412 74.3667 184.479 74.9C183.545 75.4167 182.812 76.15 182.279 77.1C181.745 78.0333 181.479 79.0833 181.479 80.25C181.479 81.4167 181.745 82.475 182.279 83.425C182.812 84.3583 183.545 85.0917 184.479 85.625C185.412 86.1417 186.462 86.4 187.629 86.4ZM203.804 74.25H198.004V71.5H212.854V74.25H207.054V89H203.804V74.25ZM228.418 86.275V89H215.293V71.5H228.068V74.225H218.543V78.775H226.993V81.45H218.543V86.275H228.418Z" fill="white"></path></svg>