<svg xmlns="http://www.w3.org/2000/svg" width="270" height="160" viewBox="0 0 270 160" fill="none"><rect x="0.5" y="0.5" width="269" height="159" stroke="white"></rect><path d="M59.1869 87.2727V92.8016H40V67.5059H58.7431V73.0347H46.6915V77.2989H57.3093V82.6471H46.6915V87.2727H59.1869Z" fill="white"></path><path d="M82.125 73.2153L74.4775 92.8016H67.786L60.1727 73.2153H66.8302L71.2684 85.1767L75.9457 73.2153H82.125Z" fill="white"></path><path fill-rule="evenodd" clip-rule="evenodd" d="M102.113 84.7431C102.182 83.659 102.216 83.0928 102.216 83.0446C102.216 80.9488 101.772 79.1419 100.884 77.6241C100.019 76.0823 98.8358 74.9138 97.3335 74.1189C95.8313 73.2997 94.1585 72.8901 92.3149 72.8901C90.3802 72.8901 88.6391 73.3238 87.0915 74.1911C85.5437 75.0583 84.3261 76.2629 83.4384 77.8049C82.5736 79.3225 82.1411 81.0451 82.1411 82.9724C82.1411 84.9237 82.5848 86.6704 83.4726 88.2122C84.383 89.7541 85.6576 90.9587 87.2963 91.826C88.9351 92.6933 90.8355 93.1269 92.9977 93.1269C96.4573 93.1269 99.0862 92.0668 100.884 89.9467L97.4702 86.1885C96.8101 86.7908 96.1501 87.2245 95.4899 87.4894C94.8527 87.7544 94.0902 87.887 93.2026 87.887C92.0191 87.887 91.029 87.622 90.2323 87.0921C89.4585 86.5378 88.9351 85.7549 88.6619 84.7431H102.113ZM89.8227 78.6721C90.5055 78.0698 91.3476 77.7686 92.3491 77.7686C93.3505 77.7686 94.1813 78.0698 94.8413 78.6721C95.5241 79.2744 95.9566 80.0935 96.1387 81.1294H88.5595C88.7416 80.0935 89.1626 79.2744 89.8227 78.6721Z" fill="white"></path><path d="M117.258 72.8901C119.557 72.8901 121.4 73.6129 122.789 75.0583C124.2 76.5038 124.905 78.6841 124.905 81.5992V92.8016H118.419V82.7194C118.419 80.0452 117.406 78.7082 115.38 78.7082C114.265 78.7082 113.366 79.0936 112.683 79.8646C112.023 80.6356 111.693 81.7919 111.693 83.3337V92.8016H105.206V73.2153H111.386V75.3474C112.114 74.5525 112.979 73.9502 113.981 73.5407C114.982 73.107 116.075 72.8901 117.258 72.8901Z" fill="white"></path><path d="M141.747 92.0065C141.2 92.3678 140.529 92.6449 139.732 92.8377C138.958 93.0304 138.128 93.1268 137.24 93.1268C134.828 93.1268 132.973 92.5004 131.675 91.2477C130.378 89.9949 129.729 88.1278 129.729 85.6464V79.0695H127.032V73.9381H129.729V68.8428H136.216V73.9381H140.449V79.0695H136.216V85.5742C136.216 86.2728 136.387 86.8269 136.728 87.2365C137.092 87.6219 137.57 87.8147 138.162 87.8147C138.913 87.8147 139.573 87.6098 140.142 87.2003L141.747 92.0065Z" fill="white"></path><path d="M147.313 93.1269C146.22 93.1269 145.298 92.7414 144.547 91.9706C143.796 91.1996 143.421 90.2239 143.421 89.0434C143.421 87.8388 143.785 86.8632 144.513 86.1164C145.264 85.3695 146.197 84.9961 147.313 84.9961C148.451 84.9961 149.384 85.3695 150.112 86.1164C150.84 86.8632 151.205 87.8388 151.205 89.0434C151.205 90.2239 150.829 91.1996 150.078 91.9706C149.35 92.7414 148.428 93.1269 147.313 93.1269Z" fill="white"></path><path fill-rule="evenodd" clip-rule="evenodd" d="M171.115 68.6622C169.522 67.8913 167.644 67.5059 165.482 67.5059H154.557V92.8016H161.317V86.1886H165.482C167.644 86.1886 169.522 85.8151 171.115 85.0683C172.709 84.2975 173.938 83.2133 174.803 81.8161C175.667 80.4187 176.1 78.7685 176.1 76.8653C176.1 74.962 175.667 73.3118 174.803 71.9144C173.938 70.4931 172.709 69.4091 171.115 68.6622ZM168.213 79.6116C167.508 80.2381 166.461 80.5513 165.073 80.5513H161.317V73.1432H165.073C166.461 73.1432 167.508 73.4684 168.213 74.1189C168.919 74.7693 169.272 75.6848 169.272 76.8653C169.272 78.0457 168.919 78.9613 168.213 79.6116Z" fill="white"></path><path fill-rule="evenodd" clip-rule="evenodd" d="M186.155 86.0801H189.843L194.179 92.8016H201.417L196.262 84.8515C197.763 84.0806 198.913 83.0205 199.71 81.6715C200.528 80.2983 200.939 78.6961 200.939 76.8653C200.939 74.962 200.506 73.3118 199.641 71.9144C198.776 70.4931 197.547 69.4091 195.953 68.6622C194.36 67.8913 192.482 67.5059 190.321 67.5059H179.396V92.8016H186.155V86.0801ZM193.052 74.1189C193.758 74.7693 194.11 75.6848 194.11 76.8653C194.11 78.0457 193.758 78.9613 193.052 79.6116C192.346 80.2381 191.3 80.5513 189.911 80.5513H186.155V73.1432H189.911C191.3 73.1432 192.346 73.4684 193.052 74.1189Z" fill="white"></path><path fill-rule="evenodd" clip-rule="evenodd" d="M209.891 91.6092C211.916 92.7415 214.193 93.3077 216.719 93.3077C219.246 93.3077 221.51 92.7415 223.514 91.6092C225.539 90.477 227.121 88.9111 228.259 86.9114C229.42 84.9119 230 82.6594 230 80.1538C230 77.6483 229.42 75.3958 228.259 73.3963C227.121 71.3966 225.539 69.8307 223.514 68.6985C221.51 67.5662 219.246 67 216.719 67C214.193 67 211.916 67.5662 209.891 68.6985C207.888 69.8307 206.307 71.3966 205.145 73.3963C204.008 75.3958 203.438 77.6483 203.438 80.1538C203.438 82.6594 204.008 84.9119 205.145 86.9114C206.307 88.9111 207.888 90.477 209.891 91.6092ZM219.997 86.4778C219.018 87.0801 217.926 87.3813 216.719 87.3813C215.513 87.3813 214.42 87.0801 213.442 86.4778C212.463 85.8755 211.69 85.0323 211.12 83.9483C210.551 82.84 210.266 81.5752 210.266 80.1538C210.266 78.7325 210.551 77.4797 211.12 76.3956C211.69 75.2874 212.463 74.4322 213.442 73.8299C214.42 73.2276 215.513 72.9264 216.719 72.9264C217.926 72.9264 219.018 73.2276 219.997 73.8299C220.975 74.4322 221.75 75.2874 222.318 76.3956C222.887 77.4797 223.172 78.7325 223.172 80.1538C223.172 81.5752 222.887 82.84 222.318 83.9483C221.75 85.0323 220.975 85.8755 219.997 86.4778Z" fill="white"></path></svg>