<svg xmlns="http://www.w3.org/2000/svg" width="270" height="160" viewBox="0 0 270 160" fill="none"><path d="M40.7028 92V87.6966L64.4751 87.7297C65.6877 87.7297 66.6111 87.509 67.245 87.0676C67.9064 86.6041 68.2372 85.8649 68.2372 84.8497C68.2372 83.8345 67.9064 83.1062 67.245 82.6648C66.6111 82.2014 65.6877 81.9697 64.4751 81.9697H49.6743C46.6149 81.9697 44.2308 81.3848 42.5219 80.2152C40.8406 79.0234 40 77.28 40 74.9848C40 72.6896 40.8406 70.9573 42.5219 69.7876C44.2308 68.5959 46.6149 68 49.6743 68H72.909V72.3034L50.3771 72.2703C49.1919 72.2703 48.2686 72.491 47.6071 72.9324C46.9456 73.3518 46.6149 74.0359 46.6149 74.9848C46.6149 75.9338 46.9456 76.629 47.6071 77.0703C48.2686 77.4896 49.1919 77.6994 50.3771 77.6994H65.1778C68.2372 77.6994 70.6075 78.3062 72.2888 79.52C73.9977 80.7117 74.8521 82.4883 74.8521 84.8497C74.8521 87.189 73.9977 88.9656 72.2888 90.1794C70.6075 91.3932 68.2372 92 65.1778 92H40.7028Z" fill="white"></path><path fill-rule="evenodd" clip-rule="evenodd" d="M90.5084 68L77.1006 92H84.3458L87.1774 86.9314H104.125L106.956 92H114.201L100.793 68H90.5084ZM101.709 82.5678H89.5924L95.3802 72.1958H95.9215L101.709 82.5678Z" fill="white"></path><path d="M116.45 92V68H123.269L144.567 85.2531V68H151.302V92H144.483L123.184 74.7133V92H116.45Z" fill="white"></path><path d="M155.799 80.151V68H192.899V80.151H186.069V72.3636H176.879V92H170.133V72.3636H162.629V80.151H155.799Z" fill="white"></path><path d="M197.396 92V68H230V72.3636H204.051V77.6672H227.588V82.0308H204.051V87.6364H230V92H197.396Z" fill="white"></path><rect x="0.5" y="0.5" width="269" height="159" stroke="white"></rect></svg>