<svg xmlns="http://www.w3.org/2000/svg" width="13" height="12" viewBox="0 0 13 12" fill="none"><path fill-rule="evenodd" clip-rule="evenodd" d="M2.23722 0.171387C1.40312 0.171387 0.857422 0.763963 0.857422 1.54252C0.857422 2.30455 1.3873 2.91424 2.20521 2.91424H2.22103C3.07149 2.91424 3.60028 2.30455 3.60028 1.54252C3.5841 0.763963 3.07149 0.171387 2.23722 0.171387ZM12.5146 6.91646V11.1428H10.0436V7.19971C10.0436 6.20963 9.68682 5.5335 8.79215 5.5335C8.10941 5.5335 7.70381 5.9887 7.52469 6.42947C7.45964 6.58699 7.44287 6.80572 7.44287 7.02665V11.1426H4.97171C4.97171 11.1426 5.00488 4.46431 4.97171 3.77301H7.44306V4.81736C7.44073 4.82121 7.43795 4.82502 7.4352 4.8288L7.4352 4.8288C7.43208 4.83308 7.42901 4.8373 7.42666 4.84148H7.44306V4.81736C7.77144 4.31629 8.35707 3.59996 9.67005 3.59996C11.2958 3.59996 12.5146 4.65326 12.5146 6.91646ZM3.60028 11.1428H0.857422V3.59996H3.60028V11.1428Z" fill="white"></path></svg>